0
SECTION
2
HEADER
9
$ACADVER
1
AC1015
9
$INSUNITS
70
4
0
ENDSEC
0
SECTION
2
TABLES
0
TABLE
2
LAYER
0
LAYER
2
CUT
70
0
62
1
0
LAYER
2
ENGRAVE
70
0
62
5
0
ENDTAB
0
ENDSEC
0
SECTION
2
BLOCKS
0
BLOCK
8
0
2
SQ
70
0
10
5
20
5
30
0
0
LWPOLYLINE
8
0
62
0
90
4
70
1
10
0
20
0
10
10
20
0
10
10
20
10
10
0
20
10
0
CIRCLE
8
0
10
5
20
5
40
3
0
LINE
8
ENGRAVE
10
0
20
0
11
10
21
10
0
ENDBLK
0
BLOCK
8
0
2
NEST
70
0
10
0
20
0
30
0
0
INSERT
8
0
2
SQ
10
0
20
0
41
0.5
42
0.5
0
ENDBLK
0
BLOCK
8
0
2
SELF
70
0
10
0
20
0
30
0
0
LINE
8
0
10
0
20
0
11
1
21
0
0
INSERT
8
0
2
SELF
10
0
20
2
0
ENDBLK
0
LINE
8
0
10
0
20
0
11
1
21
1
0
ENDSEC
0
SECTION
2
ENTITIES
0
INSERT
8
CUT
2
SQ
10
0
20
0
62
1
0
ATTRIB
8
CUT
1
tag
0
INSERT
8
CUT
2
sq
10
30
20
0
41
2
42
2
50
45
62
3
0
INSERT
8
ENGRAVE
2
SQ
10
60
20
0
230
-1
0
INSERT
8
0
2
SQ
10
90
20
0
41
2
42
1
62
4
0
INSERT
8
0
2
SQ
10
0
20
40
70
3
71
2
44
15
45
15
62
6
0
INSERT
8
0
2
NEST
10
100
20
40
0
INSERT
8
0
2
MISSING
10
0
20
0
0
INSERT
8
0
2
SELF
10
120
20
0
0
ENDSEC
0
EOF
