0
SECTION
2
HEADER
9
$ACADVER
1
AC1015
9
$INSUNITS
70
4
0
ENDSEC
0
SECTION
2
ENTITIES
0
ELLIPSE
8
0
10
20
20
20
11
10
21
0
40
0.5
0
ELLIPSE
8
0
62
1
10
50
20
20
11
0
21
8
40
0.25
41
0
42
3.141592653589793
0
ELLIPSE
8
0
62
2
10
80
20
20
11
6
21
6
40
0.5
41
4
42
1
230
-1
0
SPLINE
8
0
62
3
70
8
71
3
72
8
73
4
40
0
40
0
40
0
40
0
40
1
40
1
40
1
40
1
10
0
20
40
10
10
20
60
10
30
20
60
10
40
20
40
0
SPLINE
8
0
62
4
70
8
71
2
72
6
73
3
40
0
40
0
40
0
40
1
40
1
40
1
41
1
41
0.7071067811865476
41
1
10
50
20
40
10
50
20
50
10
60
20
50
0
SPLINE
8
0
62
5
70
9
71
3
72
9
73
5
40
0
40
0
40
0
40
0
40
0.5
40
0.5
40
1
40
1
40
1
10
70
20
40
10
75
20
50
10
85
20
50
10
90
20
40
10
80
20
35
0
SPLINE
8
0
62
6
70
8
71
3
72
0
73
0
11
0
21
70
11
10
21
75
11
20
21
70
11
30
21
75
0
SPLINE
8
0
62
6
70
8
71
3
72
4
73
1
40
0
40
0
40
0
40
0
10
0
20
80
0
SPLINE
8
0
62
3
70
8
71
3
72
8
73
4
40
0
40
0
40
0
40
0
40
1
40
1
40
1
40
1
41
1
41
2
10
40
20
70
10
45
20
80
10
55
20
80
10
60
20
70
0
ELLIPSE
8
0
62
1
10
10
20
90
11
5
21
0
40
0.5
41
0
42
7
0
ELLIPSE
8
0
62
1
10
30
20
90
11
0.01
21
0
40
0.5
0
SPLINE
8
0
62
2
70
8
71
3
72
3
73
4
40
0
40
0
40
1
10
40
20
85
10
45
20
95
10
55
20
95
10
60
20
85
11
40
21
85
11
50
21
95
11
60
21
85
0
SPLINE
8
0
62
2
70
8
71
3
72
10
73
6
40
0
40
0
40
0
40
0
40
0
40
0.5
40
1
40
1
40
1
40
1
10
70
20
85
10
72
20
95
10
76
20
95
10
80
20
85
10
84
20
90
10
88
20
85
0
ENDSEC
0
EOF
