0
SECTION
2
HEADER
9
$ACADVER
1
AC1015
9
$INSUNITS
70
4
0
ENDSEC
0
SECTION
2
TABLES
0
TABLE
2
LAYER
0
LAYER
2
ZERO
70
0
62
0
0
LAYER
2
CUT
70
0
62
1
0
LAYER
2
TRUE
70
0
62
3
420
3368601
0
LAYER
2
OFF
70
0
62
-3
0
LAYER
2
FROZEN
70
1
62
5
0
ENDTAB
0
ENDSEC
0
SECTION
2
ENTITIES
0
LINE
8
CUT
10
0
20
0
11
50
21
0
0
ARC
8
0
62
3
10
25
20
25
40
10
50
0
51
90
0
ARC
8
0
10
60
20
10
40
5
50
45
51
-45
0
ARC
8
0
62
256
10
90
20
10
40
4
50
30
0
CIRCLE
8
TRUE
10
80
20
40
40
8
0
CIRCLE
8
0
10
10
20
40
40
0
0
LWPOLYLINE
8
0
420
11162880
90
4
70
1
10
0
20
60
10
20
20
60
42
0.5
10
20
20
80
10
0
20
80
0
LWPOLYLINE
8
0
62
7
90
2
70
0
10
30
20
60
42
-1
10
40
20
60
0
LWPOLYLINE
8
0
62
0
90
3
70
0
10
50
20
60
42
0.3
10
50
20
60
10
60
20
70
0
LINE
8
OFF
10
0
20
90
11
10
21
90
0
LINE
8
FROZEN
10
0
20
92
11
10
21
92
0
LINE
8
0
60
1
10
0
20
94
11
10
21
94
0
LINE
8
0
67
1
10
0
20
96
11
10
21
96
0
TEXT
8
0
10
0
20
0
40
2
1
hello
0
POINT
8
0
10
1
20
1
0
ARC
8
0
62
2
10
70
20
90
40
0.01
50
0
51
90
0
ARC
8
0
62
2
10
70
20
-9900
40
10000
50
89.9998
51
90.0002
0
LWPOLYLINE
8
0
90
0
70
0
0
LINE
8
0
62
300
10
0
20
98
11
10
21
98
0
LINE
8
ZERO
10
0
20
99
11
10
21
99
0
ARC
8
0
62
4
10
40
20
40
40
3
50
0
51
720
0
LWPOLYLINE
8
0
90
1
70
0
10
5
20
5
0
LWPOLYLINE
8
0
62
6
20
7
42
0.5
90
2
70
0
10
30
20
30
10
35
20
30
0
ARC
8
0
10
1
20
1
40
0
50
0
51
90
0
ENDSEC
0
EOF


