0
SECTION
2
HEADER
9
$ACADVER
1
AC1015
9
$INSUNITS
70
4
0
ENDSEC
0
SECTION
2
ENTITIES
0
POLYLINE
8
0
66
1
70
1
0
VERTEX
8
0
10
0
20
0
0
VERTEX
8
0
10
20
20
0
42
1
0
VERTEX
8
0
10
20
20
20
0
VERTEX
8
0
10
0
20
20
0
SEQEND
8
0
0
POLYLINE
8
0
66
1
70
8
230
-1
62
1
0
VERTEX
8
0
10
30
20
0
0
VERTEX
8
0
10
40
20
10
42
1
0
VERTEX
8
0
10
50
20
0
0
SEQEND
8
0
0
POLYLINE
8
0
66
1
70
0
230
-1
62
2
0
VERTEX
8
0
10
60
20
0
0
VERTEX
8
0
10
70
20
10
42
1
0
VERTEX
8
0
10
80
20
0
0
SEQEND
8
0
0
POLYLINE
8
0
66
1
70
16
0
VERTEX
8
0
10
0
20
0
0
VERTEX
8
0
10
1
20
1
0
SEQEND
8
0
0
POLYLINE
8
0
66
1
70
4
62
3
0
VERTEX
8
0
10
0
20
30
70
16
0
VERTEX
8
0
10
10
20
30
70
8
0
VERTEX
8
0
10
20
20
40
70
8
0
VERTEX
8
0
10
30
20
30
70
16
0
SEQEND
8
0
0
VERTEX
8
0
10
5
20
5
0
SEQEND
8
0
0
POLYLINE
8
0
66
1
70
0
0
SEQEND
8
0
0
LWPOLYLINE
8
0
230
-1
62
4
90
3
70
0
10
0
20
50
10
10
20
50
42
0.5
10
20
20
50
0
POLYLINE
8
0
66
1
70
0
62
5
0
VERTEX
8
0
10
40
20
50
0
VERTEX
8
0
10
50
20
55
0
ENDSEC
0
EOF
